<svg xmlns="http://www.w3.org/2000/svg" viewBox="0 0 373.46 286"><defs><style>.cls-1{fill:#f52f38;}.cls-2{fill:#dacfd2;}.cls-3{fill:#020204;}.cls-4{fill:#dbd8d7;}.cls-5{fill:#35a2ff;}.cls-6{fill:#bfb0ae;}</style></defs><g id="Layer_2" data-name="Layer 2"><g id="Summoner"><path id="shadow" d="M179,286c-.39-.47-39.95-47.64-107.62-90.18L72,178.56l1.53-.83a223.28,223.28,0,0,0-22.72,12.38,11,11,0,0,1-15-3.49,10.89,10.89,0,0,1-.61-10.56l20.12-42a15.59,15.59,0,0,1,13.44-8.86l19.6-.81a30,30,0,0,1-5-5.7L69.8,98.58l2.7-3.82A36,36,0,0,1,59.33,83L42.4,57.81l2.69-3.59A45.11,45.11,0,0,1,33,46L3.27,18A10.39,10.39,0,0,1,10.39,0,10.26,10.26,0,0,1,14,.64,773.17,773.17,0,0,0,146.34,34.85a16.3,16.3,0,0,1,13.07,11.68c2.35,8.45,8.49,29.59,14.86,43.26a25.74,25.74,0,0,1,2.2,13.66,21.3,21.3,0,0,1,6.77-1.1h7a21.39,21.39,0,0,1,6.77,1.1,25.64,25.64,0,0,1,2.2-13.66C205.55,76.12,211.7,55,214.05,46.53a16.29,16.29,0,0,1,13.06-11.68A773.4,773.4,0,0,0,359.48.64,10.2,10.2,0,0,1,363.06,0a10.4,10.4,0,0,1,7.13,18L340.47,46a45.17,45.17,0,0,1-12.11,8.2l2.7,3.59L314.13,83A35.87,35.87,0,0,1,301,94.76l2.71,3.82-13.54,20.13a30.4,30.4,0,0,1-4.95,5.7l19.59.81a15.62,15.62,0,0,1,13.45,8.86l20.11,42a11,11,0,0,1-15.64,14.05A223.28,223.28,0,0,0,300,177.73l1.52.83.57,17.26C234.19,238.48,194.82,285.53,194.43,286l-7.7-2.78L179,286Zm7.7-70,.08-.1h-.17Z"/><path class="cls-1" d="M258.21,167.77l-27.48,7.58v-8.68a25.43,25.43,0,0,0-2.61-11.24c-3.94-8-12.85-23.12-30.05-39.89a11.22,11.22,0,0,0-7.85-3.19h-3.49v14a79,79,0,0,1,8,7c7.68,7.72,10.93,14.27,16,22a153.9,153.9,0,0,0,15.49,19.83,1.05,1.05,0,0,1,0,.89,1,1,0,0,1-.72.54l-1,.2a4.8,4.8,0,0,0-3.58,3.06c-2.42,6.61-10.83,25.76-34.16,51.34v11.28l74.38-74.39A3.91,3.91,0,0,0,258.21,167.77Z"/><path class="cls-2" d="M269.38,172.57l-82.65,82.65v24.4s40-48.27,110-92.27Z"/><path class="cls-3" d="M208.65,172.33a84.87,84.87,0,0,1-21.92,36.42,84.87,84.87,0,0,1-21.92-36.42,3.71,3.71,0,0,1,.19-3.85l20.82-27.86a1.13,1.13,0,0,1,1.82,0l20.82,27.86A3.71,3.71,0,0,1,208.65,172.33Z"/><path class="cls-4" d="M333.6,38.75l29.72-28.07a.39.39,0,0,0-.4-.65A784,784,0,0,1,228.71,44.72a6.23,6.23,0,0,0-5,4.49C221.25,58,214.93,79.67,208.25,94a15.88,15.88,0,0,0,2.06,16.57l22.42,28c2.5,3.13,3,4.56,3,6v11.53a3.16,3.16,0,0,0,3.18,3.16l1.89,0a.94.94,0,0,0,.93-.94V155.2a.87.87,0,0,1,.76-.87c5.22-.63,36.82-2.84,85.45,27.28a1,1,0,0,0,1.36-1.23l-20.11-42a5.64,5.64,0,0,0-4.84-3.2l-60.62-2.5a3.31,3.31,0,0,1,1.71-5.44l24-5.57a20.59,20.59,0,0,0,12.42-8.57L295.36,93l-67.43,17.52c-.71.18-1-.81-.35-1.14l65.1-21.92a25.76,25.76,0,0,0,13.15-10l16.93-25.18-62.83,20c-3.14,1-4.07,1.15-4.12,1s.76-.62,3.77-2l62.93-25.39A35.36,35.36,0,0,0,333.6,38.75Z"/><path class="cls-5" d="M115.25,167.77l27.48,7.58v-8.68a25.3,25.3,0,0,1,2.61-11.24c3.94-8,12.84-23.12,30-39.89a11.26,11.26,0,0,1,7.86-3.19h3.49v14a78,78,0,0,0-8,7c-7.69,7.72-10.94,14.27-16,22a154.15,154.15,0,0,1-15.5,19.83,1.07,1.07,0,0,0,0,.89,1,1,0,0,0,.71.54l1,.2a4.79,4.79,0,0,1,3.57,3.06c2.43,6.61,10.83,25.76,34.17,51.34v11.28L112.34,168.1A3.93,3.93,0,0,1,115.25,167.77Z"/><path class="cls-6" d="M104.08,172.57l82.65,82.65v24.4s-40-48.27-110-92.27Z"/><path class="cls-4" d="M39.85,38.75,10.13,10.68a.39.39,0,0,1,.4-.65A784.33,784.33,0,0,0,144.74,44.72a6.23,6.23,0,0,1,5,4.49C152.2,58,158.53,79.67,165.2,94a15.84,15.84,0,0,1-2.06,16.57l-22.41,28c-2.5,3.13-3,4.56-3,6v11.53a3.16,3.16,0,0,1-3.18,3.16l-1.89,0a.93.93,0,0,1-.93-.94V155.2a.88.88,0,0,0-.77-.87c-5.21-.63-36.81-2.84-85.45,27.28a1,1,0,0,1-1.36-1.23l20.12-42a5.64,5.64,0,0,1,4.84-3.2l60.62-2.5a3.32,3.32,0,0,0-1.71-5.44l-24-5.57a20.53,20.53,0,0,1-12.42-8.57L78.1,93l67.43,17.52c.71.18,1-.81.34-1.14L80.78,87.46a25.76,25.76,0,0,1-13.15-10L50.7,52.24l62.83,20c3.14,1,4.07,1.15,4.12,1s-.76-.62-3.77-2L50.94,45.86A35.59,35.59,0,0,1,39.85,38.75Z"/></g></g></svg>